<svg xmlns="http://www.w3.org/2000/svg" xmlns:xlink="http://www.w3.org/1999/xlink" width="305" height="311" viewBox="0 0 305 311"><defs><path id="a" d="M0 0h305v311h-305z"/></defs><clipPath id="b"><use xlink:href="#a" overflow="visible"/></clipPath><path clip-path="url(#b)" fill-rule="evenodd" clip-rule="evenodd" fill="#B50800" d="M152.3 76.2c9.3-8.9 2.4-14.3 21-37.9 1.5-3.2 5-15.1 12.8-15 5 1.1 39.9.1 48.9 9.1 13.4 5 30.9 27.6 44.3 45.7 18 24.1 26.8 71.6 25.2 82.7-2.9 16 7.4 38.6-20.7 69.2-18.8 18-38.5 36.2-65.8 39.8-25.7 3.9-33.1-13.5-43.3-27.7-3.5 11.2-5.3 29.6-12.8 47-7.2 13.3-22 13.5-34.9 12.5-28.8-2.9-56.7-14.1-84-32.6 5.2 1.9-36.2-15-38-56.9-7.1-44.5-6.2-70.8 12.8-103.9 38.5-44 33.1-42.3 40.7-50.3 6-4.5 16.8-13.6 32-24.8 7.6-2.8 15.2-6 22.7-5.6 6.5 1.3 12.8-.8 20.4 13.2 5.5 12.7 13.6 25.2 18.7 35.5"/><path clip-path="url(#b)" fill-rule="evenodd" clip-rule="evenodd" fill="#DA0A00" d="M70.5 127.9c-5.8-11.5-13-6.4-30.2-31.1-2.6-2.4-13-9.2-10.7-16.6 2.5-4.5 11.6-38.1 22.8-44.2 8.7-11.4 35.4-21.6 56.6-29.2 28.3-10.2 76.2-4.9 86.5-.2 14.4 7.4 39.1 4.1 60.2 39.9 11.8 23.3 23.6 47.4 19.1 74.6-3.7 25.7-22.5 27.8-39.1 33.4 9.7 6.6 26.8 13.6 41.3 25.9 10.7 10.7 6.5 24.9 1.9 37-11 26.6-29.9 50.1-55.4 70.9 3.3-4.4-24.8 30.3-65.5 19.9-44.7-6.1-69.5-14.5-95.7-42.3-30.9-49.6-31-44-36.4-53.5-2.6-7.1-8.1-20-14.5-37.9-.5-8.1-1.3-16.3 1.2-23.4 3.1-5.8 3-12.5 18.5-15.7 13.8-1.5 28-5.6 39.4-7.5"/><defs><path id="c" d="M0 0h305v311h-305z"/></defs><clipPath id="d"><use xlink:href="#c" overflow="visible"/></clipPath><path clip-path="url(#d)" fill-rule="evenodd" clip-rule="evenodd" fill="#fff" d="M112.8 107.5l-1.6-4.1 23.3-9.7 2.7 5.1c2.9-3.4 5.6-5.4 7.7-5.7 7.8-1.4 12.2 4.3 12.6 5.9l.5-7.2c3-.1 10.9.9 14.3 2.1 5.1 2.2 7.6 3.4 11 10.2 2.1 5.5.6 8.3-.7 11.7-1.2 2.4-3.1 4.8-5.1 6.4l3.1 1.9 17.5-18.3c2.5.9 11.2 9.4 12.5 13.3 2.3 4.7 1.7 9.9.5 12.6l2.5-.2c1.8 9 3.8 15.4 6.4 23.4l-8.2 3c2.9 1.3 5 2.1 7 6.5 1.9 5.1.8 8.5-.7 11.4-1.7 3-3.8 5.4-5.9 7.9l-1.1 4.1c-2.2 3.1-4.1 6.4-5.8 9.4-4.3 9.2-3.4 7-4.8 10.5l-4.1-.4 1.9 3.4c-3 2.2-6 4.4-9.1 6.5l-2-.5s-5.9-6.8-8.5-10l-1.5 1.5c-.7 4.3-3 8.2-5.8 11.1-2.2 1.9-4.5 3.8-7.4 4.6-2.5.5-5.7 1.1-9 .5l-.5-2.5s-2.4.1-3.4.1l-.2 3.6c-4.8.1-7.7-.2-10.7-.4-.7-1.2-1.2-2.1-1.7-3.2-.2-7.8.2-18.4.8-29.2-4.8 10.1-10.7 22.8-11.1 24.9l-2.9-.4c-1.8-1.3-4.7-2.6-8.6-9.2-1.3-2.4-2.1-5.5-2.3-8.3-.2-1.7-.1-3.7.4-5.9l-5.1 4.4-2.1-.8c-.7-1.5-5.4-6.8-10-12.6l-.7-2.6c1.9-1.9 6-5 10.1-8.1l-.3-.8c-3.7 2-8.2.9-9.9.1-3.9-1.9-4.5-3.9-6-6.1-1.2-2.2-2.5-6.1-1.9-11.2.6-2.9 1.1-3.5 3-6.3.7-.9 2-2.2 2.7-2.7 3 1.8 5.3 3.9 8.1 5.8 1 .6 2.5 1.1 3 1.2.1-.4 2.7-2.8 2.7-2.8-.7-3.1-1.3-5.6-1.3-8.9 0-.6-.1-2.2.3-3 4.3-.4 9.8-1.3 13.2-1.8 1.3-.2 3.3-.6 3.4-1.6 0-1-.7-1.4-2-2-2.3-.7-3.9-.8-7-1.2-3.1-.3-6.2-.1-9-1-2.9-.9-7-2.9-8.8-5.7-1.9-3.5-2.6-6.5-1.8-10.3.6-1.8 1.5-3.8 4.4-6 1.9-1.4 4.7-2.5 7.9-2.9 1.7-.2 3.4 0 5.1.5"/><path clip-path="url(#d)" fill="#fff" d="M168.4 173.2v.1l-.8-.1z"/><path clip-path="url(#d)" fill-rule="evenodd" clip-rule="evenodd" d="M118.9 140.3c.5 2.2.9 4.7 1.3 6.5 4.5.1 9.1 0 13.2-4.8 3.5-4.9-.2-13.1-6.5-16.5-.6-.3-4.7-2.4-10.6-2.2-3 .1-5.7.2-7.9-.3-1.9-.3-3.5-2.9-1.6-5.1 1.8-1.7 4.3-1.9 8.1-.1l1.4-7c-4.2-1.2-7.8-1.8-12.1.1-8.6 3.8-7.4 12.6-2 16.8 2.2 1.7 7.3 2.4 10.1 2.6 2.7.2 11.2-.1 14 4.1 1.4 2.3.8 3.9-1.4 4.9-1.9.8-4 1-6 1m-8.9 1.2c1.8-.4 3.9-.5 6.1-1 .5 2.4 1.2 4.8 1.6 7l-6.7.7c-.5-1.9-.6-4.4-1-6.7m26.7 30c-4.5 3.6-10.2 6.9-15.3 11.4-3.9 3.9-7.8 8.3-11.8 11.5l-9.4-11.4 5.2-4.4c1.6 2.2 3.6 4.4 5.4 6l5.2-5.1-4.6-5.6 4.9-3.7 4.2 5.3 7.2-5.6-1.8-2.4c.1.4-.5 1.3-1 2l-5.8-2.5c1.4-2.2 3.1-4.5 2.1-7.1-1.7-3.5-7.1-2.8-8.2 1.4-1.4 3.8-2.6 6.6-5.9 8.6-7.2 4.3-13.3-1.8-14.8-6.6-1.2-4.5-.6-8.6 3-12.3l5.3 3.9c-2.4 3.2-2.9 5.4-1.5 7.7 2.6 3.9 5.7.9 6.6-1.1 1.5-3.1 2.5-6.4 5.2-8.3 4.1-3.2 10-2.2 13.2-.3 6.2 3.6 3.5 10.8 3.8 11.1l2.5-1.8 6.3 9.3zm-2.8 13.5c-9.6.9-12.1 10.4-8.9 18l8.9-18zm8.4-4.8l-16 34.2c-3.1-3.2-5.7-4.3-7.9-11.2-1.3-4.8-1-10.8 2-15.9 5.2-8.6 13.9-9.6 21.9-7.1m-.3 35.8c2.4.2 4.1.1 7 .2.2 1.7-.1 4.5-.3 6.9l-6.5-.2c-.2-2.2-.1-4.6-.2-6.9m9.1-34.1l-7.3-.4c-1.1 10.8-1.1 21.5-.7 31.9l7.3-.2c-.4-9.6-.4-19.6.7-31.3m.5 6.6l4.7 6c1.9-2.3 5-3.3 7.8-.6 4.1 4.7 3.7 9.7 3.6 12.6-.8 6.7-6.5 7.1-11.3 7.5l.7 6.9c.3-.2 11.7 2.3 17-10.7 1.9-5.8.1-16.6-8-23.9-3.7-2.9-9.5-3.7-14.5 2.2m17.8-11.9c1.8 2.2 2.2 3.7 5.8 8.1 3.8 4.6 10 12.1 12.4 15-1.5 1.9-3.2 3.4-5 4.9-7.8-8.8-14.6-17.6-18-23.8l4.8-4.2zm21.9 27c-2 1.5-4.6 2.6-6 4.5l4.5 6c1.3-1.2 2.7-2.5 5.3-4.5-1.2-2.3-2.3-5.1-3.8-6m-16-33.8c7.5 6.3 14.9 12.2 23.3 17.5 1.6-3.1 3-5.1 4.9-8.1l6.1 4.1c-5.3 8.4-8.4 14.6-11.1 20.7-2.2-.9-4.5-2-6.8-3.2 1.1-2.3 2.1-4.6 3.3-7.2-8.4-5.1-16.2-11.7-24-18.1l4.3-5.7zm34.7-34.5c-6.1 2.9-11.2 5.2-17.6 8.3-6.7 3.2-12.6 6.3-15.7 8l6.4 12c-1.7 1.4-2 3.7-2 4.5-.1 3.7 1.4 5.6 2.6 6.9 3.2 3.2 6.2 3.8 9.1 4 4.1 0 6.8-1.9 9.8-4.4 1.8-1.6 3.2-4 5.5-6.8 1-1.3 2.5-.5 2.4.9-.3 2.8-3.3 5.9-4.3 7.3l5.5 4c3-3.6 5.5-7.4 5.4-12.4-.1-5.2-5.4-7.6-8.7-7.1-4.6.6-6.5 4.4-9.5 7.8-3.1 3.2-5.8 4.1-7.2 3.8-2.5-.4-3-2.7-2.7-4.4.4-1.4 1.2-2.3 2-3.1l-2.4-1.8 2.7-1.4c-1.5-2.4-2.6-4.6-3.9-7l6.4-3.4 4.3 8.3 6.6-3.3-4.1-8.3 5.9-2.9c.6 2.1 2.6 5.7 4.1 10 2.3-.5 4-1.4 6.5-2.4-3.1-6.7-5.1-13.1-7.1-17.1m-10.4-14.1l-8 8.4c1.9 1 3.7 1.2 6.1.9 1.5-.2 2.7-1 3.5-2.1 1.1-2-.2-5.3-1.6-7.2m-30.5 20.8l5.9 5.9 10.8-11.8c2.4 1 5.8 2.4 8.8 2.6 6.9.1 13.3-3 14.6-8.5 1-6.7-1.3-10.6-3.4-13.7-2.1-2.6-4.2-4.4-6.2-6.2-8 6.7-19 19.5-30.5 31.7m4.7-18.5c2 1.2 4.1 2.5 6 3.5-1.3 2.1-2.8 4-4.2 5.9-1.9-1.3-4.2-2.6-5.6-4 1.3-1.8 2.4-3.7 3.8-5.4m-6.6-20.9l-.7 13.5c1.9-.2 4-.1 6.8-3.1.8-.9 2.1-3.6-.1-6.5-1.6-2.2-3.8-3.2-6-3.9m-6.2-7.3c3.4.1 6.7.3 10.8 1.8 2.5 1.2 4.8 2.2 7.5 6.6 3 5.5 1.8 8.9-.6 12.9-3.2 4.7-9.5 6.4-12.4 6.5l-.7 12h-6.6l2-39.8zm-15.7 11.1c.8-2.5 4.1-1.9 5.4 1.5 1.2 3.2 1.9 7.9 1.6 11-.6 4.3-2.9 5.8-5.5 2-2.6-4.5-2.9-10.1-1.5-14.5m10.7-2.3c1.2 2.9 2.8 7.3 2.7 14.2 0 4.2-2.1 12.8-8.3 12.7-3.9-.1-6.2-2.1-7.4-3.8-4-5.6-6.1-15.3-3.7-23.6 3.9-11.1 13.6-7.3 16.7.5m-40.5 2.2c6-2.9 13.3-6.5 18.2-8.8 1 2.1 2.2 4.4 3.2 6.6l-5.2 2.6 11.5 28.8-6.2 2.5-11.8-28-6.5 3.1-3.2-6.8zm52.5 51.8c0 8.2-6.6 14.8-14.8 14.8-8.2 0-14.8-6.6-14.8-14.8 0-8.2 6.6-14.8 14.8-14.8 8.2 0 14.8 6.6 14.8 14.8"/></svg>